# xmcd CD database file
#
# Track frame offsets:
#	150
#	8830
#	24234
#	38280
#	53080
#	67108
#	75182
#	88519
#	101977
#	114270
#	127287
#	151609
#	168441
#	187455
#	205937
#	221472
#	240332
#
# Disc length: 3433 seconds
#
# Revision: 1
# Processed by: cddbd v1.5.1PL0 Copyright (c) Steve Scherf et al.
# Submitted via: CDex 1.51
#
DISCID=d40d6711
DTITLE=The Blues Brothers Band - The Blues Brothers Complete - CD 1
DYEAR=1980
DGENRE=Blues
TTITLE0=Opening: I Can't Turn You Loose
TTITLE1=Everybody Needs Somebody To Love
TTITLE2=Gimme Some Lovin'
TTITLE3=Think
TTITLE4=Soul Man
TTITLE5=Soul Finger
TTITLE6=Messin' With The Kid
TTITLE7=Hey Bartender
TTITLE8=(I Got Every Thing I Need) Almost
TTITLE9=Rubber Biscuit
TTITLE10=Shot Gun Blues
TTITLE11=Groove Me
TTITLE12=I Don't Know
TTITLE13="B" Movie Box Car Blues
TTITLE14=Flip Flop And Fly
TTITLE15=She Caught The Katy
TTITLE16=Peter Gunn Theme
EXTD=YEAR: 1980
EXTT0=
EXTT1=
EXTT2=
EXTT3=
EXTT4=
EXTT5=
EXTT6=
EXTT7=
EXTT8=
EXTT9=
EXTT10=
EXTT11=
EXTT12=
EXTT13=
EXTT14=
EXTT15=
EXTT16=
PLAYORDER=
